<svg xmlns="http://www.w3.org/2000/svg" width="61.922" height="70.952" viewBox="0 0 61.922 70.952">
  <g id="android" transform="translate(-32.164 -67.96)">
    <path id="Path_183" data-name="Path 183" d="M91.974,207.092a4.329,4.329,0,0,1,4.329,4.329v18.571a4.329,4.329,0,0,1-8.658,0V211.421a4.329,4.329,0,0,1,4.329-4.329Z" transform="translate(-38.615 -95.41)" fill="#00e69c"/>
    <path id="Path_184" data-name="Path 184" d="M69.313,133.645c-.014.164-.027.33-.027.5V162.28a5.406,5.406,0,0,0,5.369,5.464h28.614a5.406,5.406,0,0,0,5.369-5.464V134.143c0-.168-.006-.334-.02-.5Z" transform="translate(-25.837 -44.291)" fill="#00e69c"/>
    <path id="Path_185" data-name="Path 185" d="M72.891,113.592a4.329,4.329,0,0,1,4.329,4.329v18.571a4.329,4.329,0,0,1-8.658,0V117.922a4.329,4.329,0,0,1,4.329-4.329Zm-36.4-19.824A4.329,4.329,0,0,1,40.822,98.1v18.571a4.329,4.329,0,0,1-8.658,0V98.1a4.329,4.329,0,0,1,4.329-4.33Zm53.264,0A4.329,4.329,0,0,1,94.086,98.1v18.571a4.329,4.329,0,0,1-8.658,0V98.1a4.33,4.33,0,0,1,4.329-4.33ZM43.6,89.416c.12-8.643,7.664-15.729,17.347-16.663H65.3c9.684.934,17.227,8.021,17.347,16.663Z" transform="translate(0 -1.91)" fill="#00e69c"/>
    <path id="Path_186" data-name="Path 186" d="M74.743,70.009l4.567,7.91m31.467-7.91-4.567,7.91" transform="translate(-29.635)" fill="none" stroke="#00e69c" stroke-linecap="round" stroke-linejoin="round" stroke-width="3"/>
    <path id="Path_187" data-name="Path 187" d="M104.622,97.065a2.24,2.24,0,0,1-4.479.012v-.012a2.24,2.24,0,0,1,4.479-.012Zm16.719,0a2.24,2.24,0,0,1-4.479.012v-.012a2.24,2.24,0,0,1,4.479-.012Z" transform="translate(-47.313 -17.304)" fill="#1a2728"/>
  </g>
</svg>
