<svg xmlns="http://www.w3.org/2000/svg" width="56.172" height="68.903" viewBox="0 0 56.172 68.903">
  <path id="apple" d="M30.993,6A14.747,14.747,0,0,1,41.814,0a14.713,14.713,0,0,1-3.561,11.014c-4.8,5.771-10.261,4.826-10.261,4.826S26.967,11.3,30.993,6ZM28.568,19.77c2.329,0,6.652-3.2,12.278-3.2,9.685,0,13.495,6.891,13.495,6.891a14.962,14.962,0,0,0-7.452,13.055c0,10.429,9.283,14.023,9.283,14.023S49.683,68.8,40.918,68.8c-4.026,0-7.155-2.713-11.4-2.713-4.323,0-8.612,2.814-11.406,2.814C10.111,68.9,0,51.578,0,37.651c0-13.7,8.559-20.89,16.586-20.89,5.219,0,9.268,3.01,11.982,3.01Z" fill="#00e69c"/>
</svg>
