<svg xmlns="http://www.w3.org/2000/svg" xmlns:xlink="http://www.w3.org/1999/xlink" width="120.739" height="51.468" viewBox="0 0 120.739 51.468">
  <defs>
    <linearGradient id="linear-gradient" x1="0.081" y1="0.118" x2="0.877" y2="0.759" gradientUnits="objectBoundingBox">
      <stop offset="0" stop-color="#02bdaf"/>
      <stop offset="1" stop-color="#00e59b"/>
    </linearGradient>
    <clipPath id="clip-path">
      <rect id="Rectangle_2" data-name="Rectangle 2" width="120.21" height="50.468" fill="none"/>
    </clipPath>
  </defs>
  <g id="Group_9" data-name="Group 9" transform="translate(0.529 0.5)">
    <g id="Group_2" data-name="Group 2" transform="translate(0 0)">
      <g id="Group_1" data-name="Group 1" clip-path="url(#clip-path)">
        <path id="Path_1" data-name="Path 1" d="M103.4,31.287a2.666,2.666,0,0,0-1.345.293,3.417,3.417,0,0,0-1.112.759,2.773,2.773,0,0,0-.7,1.111,3.239,3.239,0,0,0,0,2.691,4.464,4.464,0,0,0,.7,1.111,2.784,2.784,0,0,0,1.112.7,3.242,3.242,0,0,0,2.69,0,4.459,4.459,0,0,0,1.112-.7,3.754,3.754,0,0,0,.759-1.111,3.244,3.244,0,0,0,0-2.691,3.427,3.427,0,0,0-.759-1.111,3.745,3.745,0,0,0-1.112-.759,3.989,3.989,0,0,0-1.345-.293m0-2.222a5.85,5.85,0,0,1,2.222.468,6.219,6.219,0,0,1,1.813,1.229,5.524,5.524,0,0,1,1.228,1.813,5.846,5.846,0,0,1,.468,2.222,4.895,4.895,0,0,1-.468,2.222,6.208,6.208,0,0,1-1.228,1.813,5.533,5.533,0,0,1-1.813,1.229,5.862,5.862,0,0,1-2.222.468,4.9,4.9,0,0,1-2.223-.468,6.219,6.219,0,0,1-1.813-1.229,5.524,5.524,0,0,1-1.228-1.813,5.838,5.838,0,0,1-.468-2.222,4.9,4.9,0,0,1,.468-2.223,6.216,6.216,0,0,1,1.228-1.813,5.531,5.531,0,0,1,1.813-1.228,5.851,5.851,0,0,1,2.223-.468m15.44,11.053a1,1,0,0,1-1.106-.879c0-.019,0-.038-.005-.057a3.023,3.023,0,0,1-1.054.878,3.513,3.513,0,0,1-1.579.351,5.072,5.072,0,0,1-1.871-.351,4.535,4.535,0,0,1-1.4-.936,3.766,3.766,0,0,1-.877-1.463,5.147,5.147,0,0,1-.293-1.93V30.469a1.016,1.016,0,0,1,1.112-1.112,1.112,1.112,0,0,1,.759.292.908.908,0,0,1,.292.82v5.263a2.6,2.6,0,0,0,.585,1.813,2.477,2.477,0,0,0,1.756.7,2.2,2.2,0,0,0,1.754-.643,2.92,2.92,0,0,0,.584-1.813V30.527a1.016,1.016,0,0,1,1.112-1.112,1.109,1.109,0,0,1,.759.292.907.907,0,0,1,.292.819V39.3a1.081,1.081,0,0,1-.292.7.642.642,0,0,1-.527.116Zm3.978-10.761a1,1,0,0,1,1.106.879c0,.019,0,.038.005.057a3.636,3.636,0,0,1,1.229-.878,3.925,3.925,0,0,1,1.638-.351,5.062,5.062,0,0,1,1.871.351,4.245,4.245,0,0,1,1.462,1.053,5.908,5.908,0,0,1,.936,1.52,4.449,4.449,0,0,1,.293,1.931v5.088a1.017,1.017,0,0,1-1.112,1.112,1.113,1.113,0,0,1-.759-.293.906.906,0,0,1-.292-.819V33.919a3.316,3.316,0,0,0-.176-1.052,6.423,6.423,0,0,0-.468-.878,2.411,2.411,0,0,0-.759-.585,3.43,3.43,0,0,0-1.053-.234,2.305,2.305,0,0,0-1.053.234,2.651,2.651,0,0,0-.819.585,2.45,2.45,0,0,0-.526.819,3.322,3.322,0,0,0-.176,1.053V38.95a1.015,1.015,0,0,1-1.112,1.112,1.112,1.112,0,0,1-.759-.292A.908.908,0,0,1,122,38.95V30.176a1.084,1.084,0,0,1,.292-.7c0-.059.234-.117.527-.117Zm15.851,1.93a2.666,2.666,0,0,0-1.345.293,3.407,3.407,0,0,0-1.111.759,2.768,2.768,0,0,0-.7,1.111,3.239,3.239,0,0,0,0,2.691,4.449,4.449,0,0,0,.7,1.111,2.781,2.781,0,0,0,1.111.7,3.477,3.477,0,0,0,1.345.292,3.2,3.2,0,0,0,1.287-.292,3.324,3.324,0,0,0,1.052-.7,3.592,3.592,0,0,0,.7-1.111,3.991,3.991,0,0,0,0-2.691,4.456,4.456,0,0,0-.7-1.111,3.469,3.469,0,0,0-1.052-.759,3.192,3.192,0,0,0-1.287-.293m3.275-5.088a1.4,1.4,0,0,1,.292-.82,1.1,1.1,0,0,1,.819-.292,1.4,1.4,0,0,1,.819.292,1.094,1.094,0,0,1,.292.82V39.183a1.021,1.021,0,0,1-.234.7.941.941,0,0,1-.643.292,1.393,1.393,0,0,1-.819-.292,1.378,1.378,0,0,1-.41-.936,3.083,3.083,0,0,1-.644.585A3.709,3.709,0,0,1,140.6,40c-.292.117-.585.234-.936.351a5.792,5.792,0,0,1-.994.117A5.258,5.258,0,0,1,136.566,40a6.216,6.216,0,0,1-1.813-1.228,5.686,5.686,0,0,1-1.229-6.258,6.231,6.231,0,0,1,1.229-1.813,5.526,5.526,0,0,1,1.813-1.229,5.268,5.268,0,0,1,2.105-.467,5.624,5.624,0,0,1,1.93.351,3.852,3.852,0,0,1,1.345.994V26.2Zm5.964-1.169a1.015,1.015,0,0,1,1.112,1.112V39.3a1.405,1.405,0,0,1-.292.819,1.094,1.094,0,0,1-.82.292,1.112,1.112,0,0,1-.759-.292.908.908,0,0,1-.292-.819V26.141a1.4,1.4,0,0,1,.292-.819,1.109,1.109,0,0,1,.759-.292Zm6.025,4.386h.7a1.4,1.4,0,0,1,.819.292,1.094,1.094,0,0,1,.292.819,1.112,1.112,0,0,1-.292.759.906.906,0,0,1-.819.293h-.7v5.088a1.264,1.264,0,0,0,.117.644.587.587,0,0,0,.292.351.635.635,0,0,0,.41.176,1.625,1.625,0,0,0,.526.058.838.838,0,0,1,.7.351,1.347,1.347,0,0,1,.234.819.945.945,0,0,1-.351.76,1.948,1.948,0,0,1-.936.292,4.464,4.464,0,0,1-1.228-.176,3.425,3.425,0,0,1-.994-.585,2.435,2.435,0,0,1-.643-1.052,4.355,4.355,0,0,1-.234-1.521V31.638a1.014,1.014,0,0,1-.7-.351,1.122,1.122,0,0,1-.234-.7,1.169,1.169,0,0,1,.234-.759,1.014,1.014,0,0,1,.7-.351V26.2a1.405,1.405,0,0,1,.292-.82,1.237,1.237,0,0,1,.76-.292,1.405,1.405,0,0,1,.819.292,1.094,1.094,0,0,1,.292.82Z" transform="translate(-36.009 -9.228)" fill="#fff"/>
        <path id="Path_2" data-name="Path 2" d="M85.93,25.4c2.984,0,3.8,1.521,3.275,2.338s-1.111.41-1.871.117a2.759,2.759,0,0,0-2.69.117c-.761.643-.878,2.105,1.52,3.158s4.269,2.282,4.269,4.33a4.981,4.981,0,0,1-3.508,4.679c-2.1.643-3.333-.292-4.679-1.053s-1.52-2.456-.7-3.041a.954.954,0,0,1,1.336.188,1.138,1.138,0,0,1,.068.1l.117.117.058.059.117.117.117.117a3.515,3.515,0,0,0,2.281,1.286c1.346.176,2.339-1.462,2.515-2.164s-.585-1.813-2.515-2.456S81.894,31.19,81.894,29.5A3.915,3.915,0,0,1,85.93,25.4" transform="translate(-29.881 -9.365)" fill="#fff"/>
      </g>
    </g>
    <path id="Union_1" data-name="Union 1" d="M-2033.193-6.531a1.343,1.343,0,0,1-1.18-.812c-.412-.8-4.336-8.881-4.336-8.881a22.023,22.023,0,0,1-12.369-9.4c-2.175-3.807-2.217-4.469-2.773-8.4a21.14,21.14,0,0,1,.622-7.891,20.79,20.79,0,0,1,16.54-14.814,25.809,25.809,0,0,1,3.7-.271h.234a17.653,17.653,0,0,1,5.244.7c14.731,4.933,14.9,17.957,14.9,17.957a19.447,19.447,0,0,1-.859,8.455,25.265,25.265,0,0,1-3.059,5.9c-3.341,4.961-8.978,7.043-10.569,7.546s-1.71.307-2.069.147a1.322,1.322,0,0,1-.413-1.935c.663-.888.584.025,3.979-1.7,4.287-2.178,7.277-4.51,9.506-10.6a17.967,17.967,0,0,0-4.36-18.471c-4.855-4.642-9.894-5.915-15.57-5.12a18.344,18.344,0,0,0-12.232,7.718c-2.7,3.714-3.051,9.019-3.051,9.019a19.692,19.692,0,0,0,.911,6.826,17.494,17.494,0,0,0,3.471,6.039,18.159,18.159,0,0,0,9.107,5.743c1.075.278,1.181.65,1.407,1.075s1.95,3.927,1.95,3.927l-.034-7.966v0h0a10.049,10.049,0,0,1-4.873-1.9,10.24,10.24,0,0,1-4.5-7.5h-1.419c-.131,0-1.5-.042-1.48-1.279s.936-1.408,1.59-1.408h2.159c.989,0,1.679.1,1.769,1.707a8.347,8.347,0,0,0,2.3,5.288c1.733,2.017,6.63,3.873,10.291,1.148a8.043,8.043,0,0,0,3.669-6.671,1.39,1.39,0,0,1,1.5-1.472h2.7a1.343,1.343,0,0,1,1.341,1.418,1.336,1.336,0,0,1-1.379,1.278h-1.574a9.556,9.556,0,0,1-2.477,5.659,10.726,10.726,0,0,1-6.906,3.767h0s-.02,11.848,0,13-.035,1.662-.726,2.017a1.465,1.465,0,0,1-.649.169Zm-6.362-25.081c0-.028-.011-.071-.021-.073l2.771-.008h.589a.827.827,0,0,0,.446-.134.765.765,0,0,0,.357-.577.8.8,0,0,0-.357-.769c-.292-.165-.325-.13-1.073-.13h-2.8v-2.086h3.43a.835.835,0,0,0,.446-.135.763.763,0,0,0,.357-.577.8.8,0,0,0-.357-.769c-.291-.165-.324-.13-1.073-.13l-2.8.005v-2.1h3.438a.845.845,0,0,0,.446-.134.766.766,0,0,0,.356-.577.8.8,0,0,0-.357-.77c-.292-.165-.324-.129-1.073-.129l-2.793,0V-42.8h3.424a.8.8,0,0,0,.432-.126.763.763,0,0,0,.367-.585.8.8,0,0,0-.356-.769c-.292-.165-.325-.129-1.073-.129h-2.743l.011-.069a6.434,6.434,0,0,1,5.566-5.506,6.45,6.45,0,0,1,.817-.052,6.438,6.438,0,0,1,6.377,5.627h-2.742c-.749,0-.786-.035-1.077.129a.8.8,0,0,0-.356.769.758.758,0,0,0,.365.584.805.805,0,0,0,.434.127h3.423v2.092l-2.794,0c-.749,0-.781-.036-1.073.129a.8.8,0,0,0-.355.77.767.767,0,0,0,.355.576.835.835,0,0,0,.445.135h3.439v2.109l-2.8,0c-.749,0-.781-.035-1.073.129a.8.8,0,0,0-.356.77.774.774,0,0,0,.356.577.845.845,0,0,0,.446.134h3.43V-33.3h-2.8c-.749,0-.782-.036-1.073.129a.8.8,0,0,0-.356.77.77.77,0,0,0,.356.576.833.833,0,0,0,.446.135h.589l2.77.006a6.435,6.435,0,0,1-5.5,5.559,6.508,6.508,0,0,1-.891.062A6.437,6.437,0,0,1-2039.555-31.613Z" transform="translate(2054 57)" stroke="rgba(0,0,0,0)" stroke-width="1" fill="url(#linear-gradient)"/>
  </g>
</svg>
