<svg xmlns="http://www.w3.org/2000/svg" xmlns:xlink="http://www.w3.org/1999/xlink" width="106.615" height="128.469" viewBox="0 0 106.615 128.469">
  <defs>
    <linearGradient id="linear-gradient" x1="0.081" y1="0.118" x2="0.877" y2="0.759" gradientUnits="objectBoundingBox">
      <stop offset="0" stop-color="#02bdaf"/>
      <stop offset="1" stop-color="#00e59b"/>
    </linearGradient>
  </defs>
  <path id="Union_2" data-name="Union 2" d="M-2001.128,70.469a3.412,3.412,0,0,1-3-2.05c-1.047-2.03-11.018-22.431-11.018-22.431-14.51-4.494-25.9-14.134-31.429-23.75s-5.632-11.288-7.046-21.206,1.58-19.931,1.58-19.931c4.585-17.219,20.527-34.133,42.028-37.416a65.974,65.974,0,0,1,9.4-.684h.594a45.109,45.109,0,0,1,13.326,1.757c37.432,12.459,37.871,45.354,37.871,45.354A48.841,48.841,0,0,1-1951,11.465a63.667,63.667,0,0,1-7.773,14.894c-8.489,12.53-22.814,17.79-26.855,19.06s-4.345.775-5.257.371a3.328,3.328,0,0,1-1.05-4.887c1.686-2.244,1.484.064,10.111-4.3,10.892-5.5,18.49-11.391,24.154-26.771s1.258-34.927-11.078-46.652-25.14-14.939-39.563-12.932-24.639,10.711-31.082,19.494c-6.872,9.381-7.752,22.779-7.752,22.779a49.445,49.445,0,0,0,2.314,17.239,44.122,44.122,0,0,0,8.82,15.253,46.178,46.178,0,0,0,23.141,14.5c2.733.7,3,1.641,3.574,2.714s4.956,9.918,4.956,9.918l-.087-20.12v-.006h-.009a25.634,25.634,0,0,1-12.381-4.8c-11.2-7.931-11.441-18.947-11.441-18.947h-3.607c-.334,0-3.805-.107-3.76-3.23s2.378-3.555,4.041-3.555h5.486c2.514,0,4.265.243,4.494,4.312s1.438,8.263,5.843,13.357,16.848,9.781,26.149,2.9,9.154-14.4,9.324-16.848,1.516-3.719,3.8-3.719h6.872a3.4,3.4,0,0,1,3.408,3.582,3.386,3.386,0,0,1-3.5,3.228h-4A24.066,24.066,0,0,1-1980,22.6c-8.207,9-17.151,9.5-17.548,9.515h0s-.05,29.924-.007,32.831-.089,4.2-1.846,5.094a3.738,3.738,0,0,1-1.649.427Zm-16.166-63.348c-.012-.07-.028-.18-.053-.184l7.042-.02h1.5a2.11,2.11,0,0,0,1.132-.339,1.93,1.93,0,0,0,.908-1.457,2.022,2.022,0,0,0-.908-1.941c-.741-.416-.826-.327-2.726-.327h-7.11V-2.417h8.715a2.132,2.132,0,0,0,1.132-.341,1.927,1.927,0,0,0,.908-1.457,2.02,2.02,0,0,0-.908-1.941c-.739-.416-.823-.327-2.726-.327l-7.117.014v-5.315h8.736a2.156,2.156,0,0,0,1.134-.339,1.933,1.933,0,0,0,.906-1.457,2.017,2.017,0,0,0-.908-1.944c-.741-.416-.824-.325-2.726-.325l-7.1-.009v-5.283h8.7a2.044,2.044,0,0,0,1.1-.318,1.926,1.926,0,0,0,.933-1.478,2.022,2.022,0,0,0-.906-1.941c-.743-.416-.826-.325-2.726-.325h-6.971l.027-.175a16.3,16.3,0,0,1,14.142-13.907,16.482,16.482,0,0,1,2.076-.132,16.325,16.325,0,0,1,16.2,14.212h-6.968c-1.9,0-2-.089-2.737.325a2.017,2.017,0,0,0-.906,1.944,1.914,1.914,0,0,0,.929,1.475,2.055,2.055,0,0,0,1.1.321h8.7v5.285l-7.1.007c-1.9,0-1.985-.091-2.726.325a2.009,2.009,0,0,0-.9,1.944,1.936,1.936,0,0,0,.9,1.455,2.13,2.13,0,0,0,1.132.341h8.738v5.326l-7.119-.011c-1.9,0-1.985-.089-2.726.325a2.021,2.021,0,0,0-.906,1.944,1.954,1.954,0,0,0,.906,1.457,2.156,2.156,0,0,0,1.134.339h8.715V2.866h-7.11c-1.9,0-1.987-.091-2.726.325a2.016,2.016,0,0,0-.905,1.944,1.943,1.943,0,0,0,.905,1.455,2.125,2.125,0,0,0,1.132.341h1.5l7.039.016a16.3,16.3,0,0,1-13.973,14.041,16.637,16.637,0,0,1-2.264.157A16.325,16.325,0,0,1-2017.294,7.121Z" transform="translate(2054.573 57.5)" stroke="rgba(0,0,0,0)" stroke-width="1" fill="url(#linear-gradient)"/>
</svg>
